<svg xmlns="http://www.w3.org/2000/svg" width="60" height="60" viewBox="0 0 60 60" fill="none">
<path d="M25.5251 53.2822V38.392C25.5251 37.9504 25.6577 37.519 25.9058 37.1536L35.0151 23.7412C35.4254 23.1372 36.1082 22.7755 36.8384 22.7755H48.5414C50.348 22.7755 51.3873 24.8298 50.317 26.2853L29.5048 54.5879C28.2437 56.3029 25.5251 55.4109 25.5251 53.2822Z" fill="#00A991"/>
<path d="M34.7198 6.71782V21.608C34.7198 22.0496 34.5872 22.481 34.3391 22.8463L25.2298 36.2587C24.8195 36.8628 24.1367 37.2245 23.4065 37.2245H11.7036C9.89686 37.2245 8.85756 35.1702 9.92788 33.7147L30.7401 5.41208C32.0012 3.69712 34.7198 4.58911 34.7198 6.71782Z" fill="#00A991"/>
</svg>
